<?xml version="1.0" encoding="utf-8"?>
<!-- Generator: Adobe Illustrator 25.2.0, SVG Export Plug-In . SVG Version: 6.00 Build 0)  -->
<svg version="1.1" id="Layer_1" xmlns="http://www.w3.org/2000/svg" xmlns:xlink="http://www.w3.org/1999/xlink" x="0px" y="0px"
	 viewBox="0 0 1024 1024" style="enable-background:new 0 0 1024 1024;" xml:space="preserve">
<style type="text/css">
	.st0{fill:#083064;}
	.st1{opacity:0.8;fill:#FFFFFF;}
	.st2{opacity:0.4;fill:#FFFFFF;}
	.st3{fill:#FFFFFF;}
</style>
<g>
	<path class="st0" d="M617.39,342.73H406.61c-35.28,0-63.88,28.6-63.88,63.88v210.78c0,35.28,28.6,63.88,63.88,63.88h210.78
		c35.28,0,63.88-28.6,63.88-63.88V406.61C681.27,371.33,652.67,342.73,617.39,342.73z"/>
	<g>
		<g>
			<g>
				<g>
					<g>
						<g>
							<g>
								<g>
									<path class="st1" d="M506.47,442.33l-22.26-23.58c-3.68-3.89-8.8-6.1-14.15-6.1H407.5c-10.09,0-18.26,8.18-18.26,18.26
										v11.42H506.47z"/>
									<path class="st2" d="M506.48,442.33h63.28l-22.27-23.58c-3.68-3.89-8.79-6.1-14.15-6.1h-62.57c-0.12,0-0.23,0-0.34,0.01
										c5.22,0.1,10.19,2.29,13.78,6.09L506.48,442.33z"/>
								</g>
							</g>
						</g>
					</g>
				</g>
				<path class="st3" d="M634.77,469.96v109.79c0,17.45-14.14,31.6-31.59,31.6H417.69c0,0-5.84,0.01-9.71-1.9
					c-10.94-4.07-18.74-14.63-18.74-27V441.13h216.71C621.87,441.13,634.77,454.04,634.77,469.96z"/>
			</g>
		</g>
		<g>
			<path class="st0" d="M562.97,509.35c-6.79-22.73-27.86-39.29-52.81-39.29c-20.5,0-38.38,11.19-47.88,27.79
				c-19.62,3.85-34.43,21.14-34.43,41.9c0,23.58,19.11,42.69,42.69,42.69c7.58,0,77.41,0,87.3,0c21.15,0,38.3-13.98,38.3-35.14
				C596.15,527.88,581.7,511.84,562.97,509.35z"/>
			<g>
				<path class="st3" d="M531.68,503.71l-7.98,7.96c6.6,4.39,10.97,11.89,10.97,20.39c0,11.78-8.37,21.64-19.48,23.96l0.05-8.92
					l-4.44,4.39l-10.01,9.91l9.92,10.02l4.38,4.43l0.04-8.54c17.3-2.41,30.66-17.29,30.66-35.24
					C545.78,520.5,540.24,510.21,531.68,503.71z"/>
				<path class="st3" d="M485.72,532.06c0-11.78,8.37-21.64,19.48-23.96l-0.05,8.92l4.44-4.39l10.01-9.91l-9.22-9.32l-5.08-5.13
					l-0.04,8.54c-17.3,2.41-30.66,17.29-30.66,35.24c0,11.56,5.54,21.85,14.11,28.35l7.98-7.96
					C490.09,548.06,485.72,540.56,485.72,532.06z"/>
			</g>
		</g>
	</g>
</g>
</svg>
